<?xml version="1.0" encoding="UTF-8" standalone="no"?>
<!-- Created with Inkscape (http://www.inkscape.org/) -->

<svg
   xmlns:dc="http://purl.org/dc/elements/1.1/"
   xmlns:cc="http://creativecommons.org/ns#"
   xmlns:rdf="http://www.w3.org/1999/02/22-rdf-syntax-ns#"
   xmlns:svg="http://www.w3.org/2000/svg"
   xmlns="http://www.w3.org/2000/svg"
   xmlns:sodipodi="http://sodipodi.sourceforge.net/DTD/sodipodi-0.dtd"
   xmlns:inkscape="http://www.inkscape.org/namespaces/inkscape"
   width="48"
   height="48"
   id="svg2"
   version="1.1"
   inkscape:version="0.48.2 r9819"
   sodipodi:docname="New document 1">
  <defs
     id="defs4" />
  <sodipodi:namedview
     id="base"
     pagecolor="#ffffff"
     bordercolor="#666666"
     borderopacity="1.0"
     inkscape:pageopacity="0.0"
     inkscape:pageshadow="2"
     inkscape:zoom="2.8"
     inkscape:cx="190.57095"
     inkscape:cy="99.855093"
     inkscape:document-units="px"
     inkscape:current-layer="layer1"
     showgrid="false"
     inkscape:window-width="1680"
     inkscape:window-height="995"
     inkscape:window-x="-2"
     inkscape:window-y="-3"
     inkscape:window-maximized="1" />
  <metadata
     id="metadata7">
    <rdf:RDF>
      <cc:Work
         rdf:about="">
        <dc:format>image/svg+xml</dc:format>
        <dc:type
           rdf:resource="http://purl.org/dc/dcmitype/StillImage" />
        <dc:title></dc:title>
      </cc:Work>
    </rdf:RDF>
  </metadata>
  <g
     inkscape:label="Layer 1"
     inkscape:groupmode="layer"
     id="layer1"
     transform="translate(0,-1004.3622)">
    <g
       id="g3159"
       transform="matrix(0.13871241,0,0,0.13871241,-22.80627,962.81548)">
      <rect
         ry="0.25312555"
         rx="0.45758626"
         y="327.77701"
         x="174.58687"
         height="96.309776"
         width="78.119324"
         id="rect2997"
         style="fill:#f4f4f4;fill-opacity:1;stroke:#383838;stroke-width:1.77477229;stroke-linecap:round;stroke-miterlimit:4;stroke-opacity:1;stroke-dasharray:none" />
      <path
         d="m 243.68018,410.33684 c -2.09172,0.36062 -8.25843,1.00975 -18.50022,1.94739 l -2.92109,-22.61138 -14.49723,0.86551 -3.02928,22.395 -17.31014,-2.38014 18.71659,-72.26985 19.36572,-0.8655 18.17565,72.91897 m -22.71957,-31.6992 -6.81586,-19.69028 -5.30123,19.79847 12.11709,-0.10817"
         style="font-size:40px;font-style:normal;font-variant:normal;font-weight:bold;font-stretch:normal;text-align:start;line-height:110.00000238%;letter-spacing:0px;word-spacing:0px;writing-mode:lr-tb;text-anchor:start;fill:#000000;fill-opacity:1;stroke:none;font-family:Cheri;-inkscape-font-specification:Cheri Bold"
         id="path3018"
         inkscape:connector-curvature="0" />
      <rect
         ry="0.25312555"
         rx="0.45758626"
         y="429.7601"
         x="173.86032"
         height="96.309776"
         width="78.119324"
         id="rect2997-7"
         style="fill:#f4f4f4;fill-opacity:1;stroke:#383838;stroke-width:1.77477229;stroke-linecap:round;stroke-miterlimit:4;stroke-opacity:1;stroke-dasharray:none" />
      <rect
         ry="0.25584108"
         rx="0.46249524"
         y="429.55484"
         x="257.19662"
         height="97.342979"
         width="78.95739"
         id="rect2997-2-1"
         style="fill:#000000;fill-opacity:1;stroke:#383838;stroke-width:1.79381216;stroke-linecap:round;stroke-miterlimit:4;stroke-opacity:1;stroke-dasharray:none" />
      <path
         d="m 235.26439,513.82357 -16.87988,1.1509 c 0.38361,-3.4527 0.57543,-7.0333 0.57545,-10.74174 -2e-5,-17.00775 -4.28394,-25.51161 -12.85172,-25.51163 -1.15093,2e-5 -2.36575,0.15993 -3.64452,0.47954 l 1.1509,23.88119 -16.59215,1.05499 0,-63.77908 c 6.9054,-1.66236 13.01155,-2.49355 18.3185,-2.49362 10.16627,7e-5 17.00773,3.00519 20.5244,9.01539 1.47056,2.49367 2.20584,5.46683 2.20592,8.91948 0.38356,8.43999 -2.11006,14.41827 -7.48088,17.93487 4.47568,3.00515 7.80052,6.93739 9.97447,11.79673 3.0051,6.71359 4.57159,16.14458 4.69951,28.29298 m -18.51032,-59.17548 c -0.4476,-3.83629 -4.53968,-5.75446 -12.27627,-5.7545 -1.2788,4e-5 -2.65348,0.064 -4.12404,0.19181 l 0.76724,18.12669 c 1.53451,0.31973 2.97314,0.47957 4.31588,0.47954 7.73659,3e-5 11.50898,-4.34781 11.31719,-13.04354"
         style="font-size:40px;font-style:normal;font-variant:normal;font-weight:bold;font-stretch:normal;text-align:start;line-height:110.00000238%;letter-spacing:0px;word-spacing:0px;writing-mode:lr-tb;text-anchor:start;fill:#000000;fill-opacity:1;stroke:none;font-family:Cheri;-inkscape-font-specification:Cheri Bold"
         id="path3026"
         inkscape:connector-curvature="0" />
      <rect
         ry="0.25312555"
         rx="0.45758626"
         y="429.46039"
         x="340.97931"
         height="96.309776"
         width="78.119324"
         id="rect2997-26-2"
         style="fill:#f4f4f4;fill-opacity:1;stroke:#383838;stroke-width:1.77477229;stroke-linecap:round;stroke-miterlimit:4;stroke-opacity:1;stroke-dasharray:none" />
      <path
         d="m 317.816,505.41651 c -1.85426,0.31969 -7.32104,0.89514 -16.40033,1.72635 l -2.58953,-20.04486 -12.85172,0.76727 -2.68544,19.85304 -15.34534,-2.10998 16.59215,-64.06682 17.1676,-0.76726 16.11261,64.64226 m -20.14076,-28.10116 -6.04223,-17.45533 -4.69951,17.55124 10.74174,-0.0959"
         style="font-size:40px;font-style:normal;font-variant:normal;font-weight:bold;font-stretch:normal;text-align:start;line-height:110.00000238%;letter-spacing:0px;word-spacing:0px;writing-mode:lr-tb;text-anchor:start;fill:#e6e6e6;fill-opacity:1;stroke:none;font-family:Cheri;-inkscape-font-specification:Cheri Bold"
         id="path3028"
         inkscape:connector-curvature="0" />
      <rect
         ry="0.25584108"
         rx="0.46249524"
         y="429.25513"
         x="424.31561"
         height="97.342979"
         width="78.95739"
         id="rect2997-2-8-9"
         style="fill:#f4f4f4;fill-opacity:1;stroke:#383838;stroke-width:1.79381216;stroke-linecap:round;stroke-miterlimit:4;stroke-opacity:1;stroke-dasharray:none" />
      <path
         d="m 411.95841,502.58684 -16.19724,1.33021 c -5e-5,-6.25982 1.01716,-14.08456 3.05168,-23.47426 0.57374,-3.07771 0.86064,-6.05111 0.8607,-8.9202 -6e-5,-7.30308 -1.93015,-10.95462 -5.79032,-10.95466 -3.59941,4e-5 -5.89469,4.3819 -6.88578,13.14557 -0.88684,7.98127 -1.33025,18.54467 -1.3302,31.69025 l -15.72772,-2.03444 4.38184,-22.84828 c 0.36511,-2.55607 0.54769,-5.1382 0.54772,-7.74649 -3e-5,-8.55503 -2.06055,-12.78038 -6.18154,-12.6761 -5.42518,0.10446 -9.28538,5.58169 -11.58063,16.43199 -0.10427,1.1998 -0.15649,2.45176 -0.15649,3.75587 -3e-5,3.18207 0.4173,7.30312 1.25195,12.3631 0.83463,5.21651 1.27804,8.42466 1.3302,9.62445 l -13.77155,1.79969 -1.40846,-53.36479 11.26763,-0.46949 0.23475,2.9734 c 3.44287,-3.02551 7.43349,-4.53829 11.97186,-4.53834 5.26865,5e-5 9.57227,1.8519 12.91085,5.55557 3.07768,-3.86016 7.17264,-5.79027 12.28486,-5.79032 6.6249,5e-5 11.68488,2.8952 15.18003,8.68547 2.76466,4.5384 3.99054,9.25932 3.67763,14.1628 -0.31306,4.43404 -0.46956,9.23322 -0.46951,14.39753 -5e-5,5.94682 0.18251,11.58064 0.54774,16.90147"
         style="font-size:40px;font-style:normal;font-variant:normal;font-weight:bold;font-stretch:normal;text-align:start;line-height:110.00000238%;letter-spacing:0px;word-spacing:0px;writing-mode:lr-tb;text-anchor:start;fill:#000000;fill-opacity:1;stroke:none;font-family:Cheri;-inkscape-font-specification:Cheri Bold"
         id="path3030"
         inkscape:connector-curvature="0" />
      <path
         d="m 491.28131,507.55937 c -1.85429,0.31969 -7.32105,0.89514 -16.40034,1.72635 l -2.58952,-20.04486 -12.85173,0.76727 -2.68543,19.85304 -15.34535,-2.10998 16.59215,-64.06682 17.16761,-0.76726 16.11261,64.64226 m -20.14076,-28.10116 -6.04223,-17.45533 -4.69952,17.55124 10.74175,-0.0959"
         style="font-size:40px;font-style:normal;font-variant:normal;font-weight:bold;font-stretch:normal;text-align:start;line-height:110.00000238%;letter-spacing:0px;word-spacing:0px;writing-mode:lr-tb;text-anchor:start;fill:#000000;fill-opacity:1;stroke:none;font-family:Cheri;-inkscape-font-specification:Cheri Bold"
         id="path3032"
         inkscape:connector-curvature="0" />
      <rect
         ry="0.25312555"
         rx="0.45758626"
         y="532.61725"
         x="175.28888"
         height="96.309776"
         width="78.119324"
         id="rect2997-4"
         style="fill:#f4f4f4;fill-opacity:1;stroke:#383838;stroke-width:1.77477229;stroke-linecap:round;stroke-miterlimit:4;stroke-opacity:1;stroke-dasharray:none" />
      <rect
         ry="0.25584108"
         rx="0.46249524"
         y="532.41199"
         x="258.62521"
         height="97.342979"
         width="78.95739"
         id="rect2997-2-0"
         style="fill:#f4f4f4;fill-opacity:1;stroke:#383838;stroke-width:1.79381216;stroke-linecap:round;stroke-miterlimit:4;stroke-opacity:1;stroke-dasharray:none" />
      <path
         d="m 322.12287,618.60853 -16.87988,1.1509 c 0.38359,-3.4527 0.57541,-7.0333 0.57546,-10.74174 -5e-5,-17.00775 -4.28395,-25.51161 -12.85173,-25.51163 -1.15093,2e-5 -2.36577,0.15993 -3.64452,0.47954 l 1.1509,23.88119 -16.59215,1.05499 0,-63.77908 c 6.90538,-1.66236 13.01155,-2.49355 18.3185,-2.49362 10.16624,7e-5 17.0077,3.00519 20.5244,9.01539 1.47054,2.49367 2.20585,5.46683 2.20589,8.91948 0.38359,8.43999 -2.11003,14.41827 -7.48085,17.93487 4.47568,3.00515 7.80049,6.93739 9.97447,11.79673 3.00508,6.71359 4.57157,16.14458 4.69951,28.29298 m -18.51032,-59.17548 c -0.4476,-3.83629 -4.5397,-5.75446 -12.27627,-5.7545 -1.2788,4e-5 -2.6535,0.064 -4.12406,0.19181 l 0.76726,18.12669 c 1.53451,0.31973 2.97314,0.47957 4.31588,0.47954 7.73657,3e-5 11.50896,-4.34781 11.31719,-13.04354"
         style="font-size:40px;font-style:normal;font-variant:normal;font-weight:bold;font-stretch:normal;text-align:start;line-height:110.00000238%;letter-spacing:0px;word-spacing:0px;writing-mode:lr-tb;text-anchor:start;fill:#000000;fill-opacity:1;stroke:none;font-family:Cheri;-inkscape-font-specification:Cheri Bold"
         id="path3034"
         inkscape:connector-curvature="0" />
      <path
         d="m 237.53164,610.91575 c -1.8543,0.31969 -7.32105,0.89514 -16.40034,1.72635 l -2.58953,-20.04486 -12.85172,0.76727 -2.68544,19.85304 -15.34534,-2.10998 16.59215,-64.06682 17.1676,-0.76726 16.11262,64.64226 m -20.14077,-28.10116 -6.04223,-17.45533 -4.69951,17.55124 10.74174,-0.0959"
         style="font-size:40px;font-style:normal;font-variant:normal;font-weight:bold;font-stretch:normal;text-align:start;line-height:110.00000238%;letter-spacing:0px;word-spacing:0px;writing-mode:lr-tb;text-anchor:start;fill:#000000;fill-opacity:1;stroke:none;font-family:Cheri;-inkscape-font-specification:Cheri Bold"
         id="path3036"
         inkscape:connector-curvature="0" />
      <rect
         ry="0.25312555"
         rx="0.45758626"
         y="532.3175"
         x="342.4079"
         height="96.309776"
         width="78.119324"
         id="rect2997-26-6"
         style="fill:#1a1a1a;fill-opacity:1;stroke:#383838;stroke-width:1.77477229;stroke-linecap:round;stroke-miterlimit:4;stroke-opacity:1;stroke-dasharray:none" />
      <rect
         ry="0.25584108"
         rx="0.46249524"
         y="532.11224"
         x="425.7442"
         height="97.342979"
         width="78.95739"
         id="rect2997-2-8-0"
         style="fill:#000000;fill-opacity:1;stroke:#383838;stroke-width:1.79381216;stroke-linecap:round;stroke-miterlimit:4;stroke-opacity:1;stroke-dasharray:none" />
      <path
         d="m 500.06493,607.9448 -17.00963,1.39693 c -6e-5,-6.57378 1.06818,-14.79099 3.20471,-24.65164 0.60253,-3.23208 0.90383,-6.35462 0.90389,-9.36763 -6e-5,-7.66937 -2.02698,-11.50406 -6.08073,-11.5041 -3.77998,4e-5 -6.19036,4.60168 -7.23115,13.80492 -0.93134,8.38158 -1.39699,19.47479 -1.39693,33.27972 l -16.5166,-2.13648 4.60164,-23.99427 c 0.38344,-2.68427 0.57517,-5.39593 0.57521,-8.13504 -4e-5,-8.98412 -2.1639,-13.4214 -6.4916,-13.31188 -5.6973,0.1097 -9.75112,5.86165 -12.16148,17.25615 -0.10949,1.25999 -0.16434,2.57474 -0.16434,3.94426 -2e-5,3.34167 0.43823,7.66942 1.31475,12.9832 0.87648,5.47815 1.34212,8.8472 1.39693,10.10717 l -14.46229,1.88996 -1.4791,-56.0414 11.83279,-0.49303 0.24651,3.12254 c 3.61556,-3.17727 7.80633,-4.76592 12.57234,-4.76598 5.53287,6e-5 10.05234,1.94478 13.5584,5.83422 3.23205,-4.05378 7.53239,-6.08068 12.90103,-6.08074 6.95716,6e-5 12.27096,3.04041 15.94139,9.12111 2.90333,4.76602 4.19069,9.72373 3.86209,14.87315 -0.32877,4.65645 -0.49311,9.69634 -0.49304,15.11968 -7e-5,6.24508 0.19167,12.16147 0.57521,17.74918"
         style="font-size:40px;font-style:normal;font-variant:normal;font-weight:bold;font-stretch:normal;text-align:start;line-height:110.00000238%;letter-spacing:0px;word-spacing:0px;writing-mode:lr-tb;text-anchor:start;fill:#e6e6e6;fill-opacity:1;stroke:none;font-family:Cheri;-inkscape-font-specification:Cheri Bold"
         id="path3038"
         inkscape:connector-curvature="0" />
      <path
         d="m 407.42549,608.77289 c -1.85427,0.31969 -7.32105,0.89514 -16.40034,1.72635 l -2.58953,-20.04486 -12.85172,0.76727 -2.68544,19.85304 -15.34534,-2.10998 16.59218,-64.06682 17.16757,-0.76726 16.11262,64.64226 m -20.14077,-28.10116 -6.04223,-17.45533 -4.69948,17.55124 10.74171,-0.0959"
         style="font-size:40px;font-style:normal;font-variant:normal;font-weight:bold;font-stretch:normal;text-align:start;line-height:110.00000238%;letter-spacing:0px;word-spacing:0px;writing-mode:lr-tb;text-anchor:start;fill:#f2f2f2;fill-opacity:1;stroke:none;font-family:Cheri;-inkscape-font-specification:Cheri Bold"
         id="path3040"
         inkscape:connector-curvature="0" />
      <rect
         ry="0.25584108"
         rx="0.46249524"
         y="327.57175"
         x="257.92319"
         height="97.342979"
         width="78.95739"
         id="rect2997-2"
         style="fill:#f4f4f4;fill-opacity:1;stroke:#383838;stroke-width:1.79381216;stroke-linecap:round;stroke-miterlimit:4;stroke-opacity:1;stroke-dasharray:none" />
      <path
         d="m 327.25213,412.40636 -18.00838,1.84177 0.20465,-32.94715 c 0.13633,-17.94011 -2.31932,-26.84196 -7.36707,-26.70559 -5.72996,0.1366 -9.78868,3.17198 -12.17612,9.10651 -1.50073,3.61535 -2.25107,7.94691 -2.25104,12.99468 -0.0683,6.82138 0.68212,17.87194 2.25104,33.15177 l -16.67821,2.45569 -2.96728,-69.98709 14.83645,-2.25104 0.40927,5.32066 c 4.43385,-3.81991 9.58396,-5.72987 15.45037,-5.72994 8.59486,7e-5 15.17744,3.7177 19.74782,11.15291 3.41061,5.52534 5.18415,11.63044 5.32066,18.31533 0.13633,5.93461 0.54564,20.36177 1.22784,43.28149"
         style="font-size:40px;font-style:normal;font-variant:normal;font-weight:bold;font-stretch:normal;text-align:start;line-height:110.00000238%;letter-spacing:0px;word-spacing:0px;writing-mode:lr-tb;text-anchor:start;fill:#000000;fill-opacity:1;stroke:none;font-family:Cheri;-inkscape-font-specification:Cheri Bold"
         id="path3020"
         inkscape:connector-curvature="0" />
      <g
         transform="translate(82.857141,-0.71428575)"
         id="g3151">
        <rect
           style="fill:#1a1a1a;fill-opacity:1;stroke:#383838;stroke-width:1.77477229;stroke-linecap:round;stroke-miterlimit:4;stroke-opacity:1;stroke-dasharray:none"
           id="rect2997-26"
           width="78.119324"
           height="96.309776"
           x="341.70587"
           y="327.47729"
           rx="0.45758626"
           ry="0.25312555" />
        <path
           inkscape:connector-curvature="0"
           id="path3024"
           style="font-size:40px;font-style:normal;font-variant:normal;font-weight:bold;font-stretch:normal;text-align:start;line-height:110.00000238%;letter-spacing:0px;word-spacing:0px;writing-mode:lr-tb;text-anchor:start;fill:#ececec;fill-opacity:1;stroke:none;font-family:Cheri;-inkscape-font-specification:Cheri Bold"
           d="m 396.9767,391.15903 c -0.38368,6.45785 -1.85426,11.66887 -4.41178,15.63307 -3.70849,5.94632 -9.5589,8.75963 -17.55124,8.43994 -6.71361,-0.31971 -11.54099,-3.42074 -14.48217,-9.30311 -2.10998,-4.15603 -3.16497,-9.5269 -3.16497,-16.11262 0,-3.13299 0.2237,-6.07416 0.67135,-8.82357 l 15.44126,0.57545 c -1.53456,4.22 -2.30183,7.96042 -2.3018,11.22129 -3e-5,4.98723 1.9501,7.57676 5.85041,7.76858 4.47568,0.25576 7.35293,-3.51663 8.63175,-11.3172 0.57541,-3.26086 0.79921,-7.22506 0.67136,-11.89264 l 0,-0.19181 c -2.30185,1.79032 -5.27498,2.68546 -8.91948,2.68543 -1.02305,3e-5 -2.11001,-0.064 -3.26088,-0.19182 -5.30695,-0.63937 -9.62283,-2.74935 -12.94764,-6.32995 -3.06907,-3.32478 -4.6036,-7.16112 -4.6036,-11.50901 0,-1.7263 0.28772,-3.38871 0.86317,-4.98723 3.19694,-8.88745 8.4719,-13.3312 15.82489,-13.33127 3.5166,7e-5 7.32098,1.02308 11.4131,3.06907 l -0.28773,-4.5077 16.59216,-1.05499 -4.02816,50.16009 m -11.79673,-24.07301 -0.57545,-13.42717 c -9.39905,0.51155 -14.09856,3.29289 -14.09853,8.34403 -3e-5,0.38368 0.0319,0.79928 0.0959,1.24681 0.57543,3.58062 2.90919,5.37092 7.00132,5.37087 2.3657,5e-5 4.8913,-0.51148 7.57676,-1.53454" />
      </g>
      <g
         transform="matrix(0.97316203,0,0,1,-72.164158,0)"
         id="g3155">
        <rect
           style="fill:#f4f4f4;fill-opacity:1;stroke:#383838;stroke-width:1.79381216;stroke-linecap:round;stroke-miterlimit:4;stroke-opacity:1;stroke-dasharray:none"
           id="rect2997-2-8"
           width="78.95739"
           height="97.342979"
           x="425.04218"
           y="327.27203"
           rx="0.46249524"
           ry="0.25584108" />
        <path
           inkscape:connector-curvature="0"
           id="path3022"
           style="font-size:40px;font-style:normal;font-variant:normal;font-weight:bold;font-stretch:normal;text-align:start;line-height:110.00000238%;letter-spacing:0px;word-spacing:0px;writing-mode:lr-tb;text-anchor:start;fill:#000000;fill-opacity:1;stroke:none;font-family:Cheri;-inkscape-font-specification:Cheri Bold"
           d="m 489.20761,409.91727 c -1.85429,0.31969 -7.32105,0.89514 -16.40034,1.72635 l -2.58952,-20.04486 -12.85173,0.76727 -2.68544,19.85304 -15.34534,-2.10998 16.59215,-64.06682 17.16761,-0.76726 16.11261,64.64226 m -20.14077,-28.10116 -6.04222,-17.45533 -4.69952,17.55124 10.74174,-0.0959" />
      </g>
    </g>
  </g>
</svg>
