/* XPM */
static char *anagramarama[] = {
/* columns rows colors chars-per-pixel */
"32 32 235 2 ",
"   c #000100010001",
".  c #00DC00DC00DC",
"X  c #01F601F601F6",
"o  c #033803380338",
"O  c #03EB03EB03EB",
"+  c #051805180518",
"@  c #071607160716",
"#  c #07E407E407E4",
"$  c #094209420942",
"%  c #0A300A300A30",
"&  c #0B1A0B1A0B1A",
"*  c #0BFD0BFD0BFD",
"=  c #0D580D580D58",
"-  c #0EF40EF40EF4",
";  c #0FD90FD90FD9",
":  c #10E910E910E9",
">  c #122B122B122B",
",  c #133413341334",
"<  c #143014301430",
"1  c #152315231523",
"2  c #160816081608",
"3  c #171917191719",
"4  c #183118311831",
"5  c #192519251925",
"6  c #1A041A041A04",
"7  c #1B121B121B12",
"8  c #1C261C261C26",
"9  c #1D121D121D12",
"0  c #1E2C1E2C1E2C",
"q  c #1F2C1F2C1F2C",
"w  c #201920192019",
"e  c #212321232123",
"r  c #226F226F226F",
"t  c #22EF22EF22EF",
"y  c #240C240C240C",
"u  c #24B124B124B1",
"i  c #263D263D263D",
"p  c #26FB26FB26FB",
"a  c #281028102810",
"s  c #296729672967",
"d  c #2A282A282A28",
"f  c #2B3C2B3C2B3C",
"g  c #2C392C392C39",
"h  c #2D462D462D46",
"j  c #2E262E262E26",
"k  c #2F4D2F4D2F4D",
"l  c #2FFC2FFC2FFC",
"z  c #310231023102",
"x  c #324E324E324E",
"c  c #339233923392",
"v  c #33DF33DF33DF",
"b  c #354035403540",
"n  c #364936493649",
"m  c #382D382D382D",
"M  c #393939393939",
"N  c #3A623A623A62",
"B  c #3B503B503B50",
"V  c #3C4E3C4E3C4E",
"C  c #3D513D513D51",
"Z  c #3E1A3E1A3E1A",
"A  c #3F323F323F32",
"S  c #406040604060",
"D  c #410841084108",
"F  c #422542254225",
"G  c #435B435B435B",
"H  c #443844384438",
"J  c #455F455F455F",
"K  c #474847484748",
"L  c #488B488B488B",
"P  c #496049604960",
"I  c #4A104A104A10",
"U  c #4B664B664B66",
"Y  c #4C504C504C50",
"T  c #4EBF4EBF4EBF",
"R  c #4EEA4EEA4EEA",
"E  c #501F501F501F",
"W  c #513251325132",
"Q  c #537653765376",
"!  c #54A554A554A5",
"~  c #552A552A552A",
"^  c #565356535653",
"/  c #570757075707",
"(  c #583558355835",
")  c #598359835983",
"_  c #5AF25AF25AF2",
"`  c #5C4C5C4C5C4C",
"'  c #5D775D775D77",
"]  c #5ECC5ECC5ECC",
"[  c #5F845F845F84",
"{  c #604460446044",
"}  c #616961696169",
"|  c #62C862C862C8",
" . c #64C964C964C9",
".. c #64FC64FC64FC",
"X. c #668566856685",
"o. c #684F684F684F",
"O. c #697469746974",
"+. c #6A4F6A4F6A4F",
"@. c #6BDD6BDD6BDD",
"#. c #6C346C346C34",
"$. c #6D506D506D50",
"%. c #6E8A6E8A6E8A",
"&. c #6EFD6EFD6EFD",
"*. c #70A270A270A2",
"=. c #729472947294",
"-. c #73AD73AD73AD",
";. c #74D274D274D2",
":. c #768876887688",
">. c #777777777777",
",. c #784A784A784A",
"<. c #790579057905",
"1. c #7A207A207A20",
"2. c #7BF77BF77BF7",
"3. c #7C517C517C51",
"4. c #7D857D857D85",
"5. c #7E657E657E65",
"6. c #7F7B7F7B7F7B",
"7. c #80F380F380F3",
"8. c #813E813E813E",
"9. c #829782978297",
"0. c #834683468346",
"q. c #849284928492",
"w. c #852885288528",
"e. c #86BB86BB86BB",
"r. c #87A487A487A4",
"t. c #889888988898",
"y. c #898789878987",
"u. c #8A598A598A59",
"i. c #8BD78BD78BD7",
"p. c #8C6C8C6C8C6C",
"a. c #8D958D958D95",
"s. c #8EFD8EFD8EFD",
"d. c #8FCF8FCF8FCF",
"f. c #90AC90AC90AC",
"g. c #918391839183",
"h. c #925D925D925D",
"j. c #93B793B793B7",
"k. c #945594559455",
"l. c #967296729672",
"z. c #977597759775",
"x. c #988098809880",
"c. c #9AF99AF99AF9",
"v. c #9B6B9B6B9B6B",
"b. c #9D169D169D16",
"n. c #9DF39DF39DF3",
"m. c #9E949E949E94",
"M. c #9FB39FB39FB3",
"N. c #A021A021A021",
"B. c #A155A155A155",
"V. c #A294A294A294",
"C. c #A393A393A393",
"Z. c #A451A451A451",
"A. c #A5AAA5AAA5AA",
"S. c #A78DA78DA78D",
"D. c #A8B1A8B1A8B1",
"F. c #A977A977A977",
"G. c #AAC8AAC8AAC8",
"H. c #ABE8ABE8ABE8",
"J. c #AC7AAC7AAC7A",
"K. c #AD7AAD7AAD7A",
"L. c #AE9DAE9DAE9D",
"P. c #AFAAAFAAAFAA",
"I. c #B045B045B045",
"U. c #B18DB18DB18D",
"Y. c #B2CAB2CAB2CA",
"T. c #B420B420B420",
"R. c #B463B463B463",
"E. c #B5B1B5B1B5B1",
"W. c #B6AFB6AFB6AF",
"Q. c #B7B6B7B6B7B6",
"!. c #B8C8B8C8B8C8",
"~. c #B94CB94CB94C",
"^. c #BAACBAACBAAC",
"/. c #BBDBBBDBBBDB",
"(. c #BC99BC99BC99",
"). c #BDE5BDE5BDE5",
"_. c #BEC6BEC6BEC6",
"`. c #C001C001C001",
"'. c #C0D7C0D7C0D7",
"]. c #C239C239C239",
"[. c #C2B1C2B1C2B1",
"{. c #C3DFC3DFC3DF",
"}. c #C4CCC4CCC4CC",
"|. c #C59DC59DC59D",
" X c #C7FFC7FFC7FF",
".X c #C8F5C8F5C8F5",
"XX c #C9BEC9BEC9BE",
"oX c #CAC2CAC2CAC2",
"OX c #CB89CB89CB89",
"+X c #CCB8CCB8CCB8",
"@X c #CDBECDBECDBE",
"#X c #CEDBCEDBCEDB",
"$X c #CFABCFABCFAB",
"%X c #D1D9D1D9D1D9",
"&X c #D2A5D2A5D2A5",
"*X c #D3F0D3F0D3F0",
"=X c #D4CFD4CFD4CF",
"-X c #D5E4D5E4D5E4",
";X c #D6BCD6BCD6BC",
":X c #D7C7D7C7D7C7",
">X c #D8E7D8E7D8E7",
",X c #D9C1D9C1D9C1",
"<X c #DACFDACFDACF",
"1X c #DBFBDBFBDBFB",
"2X c #DCA9DCA9DCA9",
"3X c #DDE6DDE6DDE6",
"4X c #DEAEDEAEDEAE",
"5X c #DFEDDFEDDFED",
"6X c #E0EBE0EBE0EB",
"7X c #E1AEE1AEE1AE",
"8X c #E2EEE2EEE2EE",
"9X c #E40DE40DE40D",
"0X c #E4B7E4B7E4B7",
"qX c #E606E606E606",
"wX c #E6D8E6D8E6D8",
"eX c #E7E1E7E1E7E1",
"rX c #E8E5E8E5E8E5",
"tX c #E9F3E9F3E9F3",
"yX c #EAD6EAD6EAD6",
"uX c #EBCCEBCCEBCC",
"iX c #ED03ED03ED03",
"pX c #EDB1EDB1EDB1",
"aX c #EF06EF06EF06",
"sX c #EFF7EFF7EFF7",
"dX c #F101F101F101",
"fX c #F242F242F242",
"gX c #F2F0F2F0F2F0",
"hX c #F3EAF3EAF3EA",
"jX c #F520F520F520",
"kX c #F636F636F636",
"lX c #F703F703F703",
"zX c #F7EEF7EEF7EE",
"xX c #F922F922F922",
"cX c #FA59FA59FA59",
"vX c None",
/* pixels */
"vXvXvXvXvXvXvXvXvXvXvXvXvXvXvXvXvXvXvXvXvXvXvXvXvXvXvXvXvXvXvXvX",
"vXvXvXvXvXvXvXvXvXvXvXvXvXvXvXvXvXvXvXvXvXvXvXvXvXvXvXvXvXvXvXvX",
"vXvX[.[.}.}.[.[.vX_.}.[.}.[.[.vXvX}.}.}.[.}.}.vXp q q e q e e vX",
"vX9XlX-Xe.B.aXdX%XwX.X.XY..XdXaX-XlXdXaXaXlXlX%Xq 7 p h K n 7 vX",
"vXwXxXg.# h 9XdX-XW.e 7 7 p G.tX>XlX5XO.>.tXlX.Xq F W.L.-X>.7 vX",
"vXtXdX` ; < _.dX-X!.* n b.h P >X>XxXW.< p .XxX.X7 e.[...>X=.7 vX",
"vXaX>XF ..d y.dX-X}.; 8.xX/ h [.9XlXa.Z e G.xX}.7 ` [.Y.9X} < vX",
"vXaX!.7 m < ` aX-X@X; a.xX} d W.wXaX` Z e 2.lX[.q E b.,.[._ < vX",
"vXdXa.; 8.m n %X-X-X< 8.lX} p Y.tX5Xh Y m P tX_.7 2.Y.Y !.Y 7 vX",
"vXwX} n tX2.e Y.>X>Xe ,.lX` p G.aX_.h W.g.p 5X_.q ` %X.XW.x 7 vX",
"vXaXL.S.aX}.B.%X-XtXS..XlXB.y.}.tX>XS.9X-XG.tXW.7 e =.k.P 7 7 vX",
"vX.X%X-X-X-X5X>XvXW.!.W.!._.[.Y._..X@X%X%X>X>XvXF F F F F K K vX",
"vX@X!.b.S.%XwX5XF @ * q q # # < Y.9X5X9X9X9X9X%X-XtXtXwXtXtXtXvX",
"vX-XP m m 8.dXdXZ   e b.y.;   # Y.-X[.@X.X_.tX9X5XlX5X$.>.wXdXvX",
"vX%Xp g.B.Z 9XdXF   P >X.Xh   ; _ q x x d d e.5X9XlXW.* e }.lXvX",
"vX-Xd P K } aXdXZ   =.B..XE   < / < L.Y F 2.P [.9XlXa.m q B.dXvX",
"vX-Xd h x } aXdXZ # S.Y..X,.@ < _ m wX..O.b.K W.wXtX_ F p >.tXvX",
"vX>Xp =.G.p W.dXZ e [.8.B.L.* < } n >XY $.2.Z W.tX5Xd K m F 5XvX",
"vX5X_ y.}.h 8.lXZ F Y.h _ _.q ; e.} @X` y.y.O._.tXW.e Y.a.7 .XvX",
"vXdX9XtX-X/ g.lXZ < x * < x # ; @XtXdX>X9XwXwX%XaX-XG.9X-XS.5XvX",
"vXwXwXtXwX>XwXaXm             ; .XtXwXtXdXdXdX@X9XtXaXaXdXxXaXvX",
"vX!.[..X@X@X@X@XvXy.k.a.g.k.g.g.Y Z F m Z K F Z m n n m m m m vX",
"vX9XdX>XW.>XdXaX%X9XG.,.y.@XdXwXZ 7 7 Y } d 7 7 #               ",
"vXwXlXy.7 a.lXlX>X-Xx Y E _ tXtXZ < d !.tX/ < 7 E >.a.>.,.a.n @ ",
"vXtXaXY ; / tXdX>X>Xh y.c.Z 9XtXZ < P .X5X,.7 7 y.5Xg._..XG.b.h ",
"vXaX@XZ ` d 5XlX-X>Xx h d $.dXwXZ < O.[.L.G.e 7 e.W.; a.c.F Y./ ",
"vXdXG.7 n 7 W.dX-X>Xh K / F >XwXm e k.-X.X%Xh 7 2.b.* k.y.P Y./ ",
"vXtX,.n k.h 2.dX%X5Xh O._.d b.tXm d .Xy.O.5X/ 7 2.L.e L.8.O._.E ",
"vXwX>.2.9X..2.dX%XwXe.S.@Xx =.wXm h b.Y n k./ < Y =.e ,./ P $.n ",
"vXtX>X5XaX5XwXaX@XaXdXlX5Xe.L.wXm q q q q q 7 q @             * ",
"vXvX@XvXvXvXvXvXvX@X%X-X-X>XwX-XvXvXvXvXvXvXvXvXvX# # # @ @ @ vX",
"vXvXvXvXvXvXvXvXvXvXvXvXvXvXvXvXvXvXvXvXvXvXvXvXvXvXvXvXvXvXvXvX"
};
